<svg width="221" height="221" viewBox="0 0 221 221" fill="none" xmlns="http://www.w3.org/2000/svg">
<g clip-path="url(#clip0_127_5623)">
<path d="M110.408 18.4165C59.5778 18.4165 18.4165 59.6698 18.4165 110.5C18.4165 161.33 59.5778 202.583 110.408 202.583C161.33 202.583 202.583 161.33 202.583 110.5C202.583 59.6698 161.33 18.4165 110.408 18.4165ZM140.151 160.133L110.5 142.269L80.849 160.133C80.0732 160.603 79.1761 160.835 78.2695 160.8C77.3628 160.764 76.4867 160.462 75.7503 159.932C75.014 159.402 74.4499 158.667 74.1285 157.818C73.8071 156.97 73.7425 156.045 73.9428 155.16L81.7698 121.458L55.7103 98.8973C55.0333 98.2944 54.5474 97.5067 54.3123 96.6312C54.0771 95.7557 54.103 94.8305 54.3868 93.9695C54.6705 93.1085 55.1997 92.3492 55.9093 91.785C56.6189 91.2209 57.4779 90.8764 58.3807 90.794L92.8198 87.8473L106.264 56.0786C107.829 52.3032 113.17 52.3032 114.736 56.0786L128.18 87.7553L162.619 90.7019C163.525 90.7798 164.389 91.1245 165.099 91.6925C165.81 92.2604 166.336 93.0262 166.612 93.8932C166.888 94.7601 166.901 95.6894 166.649 96.5636C166.397 97.4379 165.892 98.2179 165.197 98.8053L139.138 121.366L146.965 155.16C147.886 159.12 143.65 162.251 140.151 160.133Z" fill="#F5C518"/>
</g>
<defs>
<clipPath id="clip0_127_5623">
<rect width="221" height="221" fill="white"/>
</clipPath>
</defs>
</svg>
