<svg width="294" height="293" viewBox="0 0 294 293" fill="none" xmlns="http://www.w3.org/2000/svg">
<path d="M12.5 114.5L23.5 253H53V114.5H12.5Z" fill="#C3C3C3"/>
<path d="M92.5 114.5V253H133V114.5H92.5Z" fill="#C3C3C3"/>
<path d="M199 253L213 114.5H173V253H199Z" fill="#C3C3C3"/>
<path d="M12.5 114.5L23.5 253H53M12.5 114.5H3V93.9999H18.5M12.5 114.5H53M213 114.5L199 253H173M213 114.5H225V93.9999H211M213 114.5H173M18.5 93.9999V77.4999C12.8333 72.9999 3.7 60.8999 12.5 48.4999C21.3 36.0999 32.8333 37.9999 37.5 40.4999C37.5 33.6666 41 18.8999 55 14.4999C69 10.0999 79.5 17.6666 83 21.9999C86 14.1665 96.4 -0.200251 114 4.99975C131.6 10.1997 134 23.8332 133 30C135.667 29.3333 143.1 29 151.5 33C159.9 37 162.667 41.6667 163 43.5C165.333 36.6667 174.1 24.4 190.5 30C206.9 35.6 205 52 202 59.5C206 59 214.4 59.5 216 65.5C217.6 71.5 213.333 75.9999 211 77.4999V93.9999M18.5 93.9999H211M68.5 43.5C73.3333 44.1667 83 47.8 83 57C83 66.2 73.3333 69.5 68.5 70M112.5 52.5C112.667 58.3333 116.1 70 128.5 70C140.9 70 144.333 58.3333 144.5 52.5M53 114.5V253M53 114.5H92.5M53 253H92.5M92.5 114.5V253M92.5 114.5H133M92.5 253H133M133 114.5V253M133 114.5H173M133 253H173M173 114.5V253" stroke="#C3C3C3" stroke-width="6" stroke-linecap="round" stroke-linejoin="round"/>
<path fill-rule="evenodd" clip-rule="evenodd" d="M90 216C86.6863 216 84 218.686 84 222V284C84 287.314 86.6863 290 90 290H173.135C175.225 290 177.165 288.912 178.255 287.129L187.5 272L196.745 287.129C197.835 288.912 199.775 290 201.865 290H285C288.314 290 291 287.314 291 284V222C291 218.686 288.314 216 285 216H202.004C199.839 216 197.842 217.166 196.778 219.052L187.5 235.5L178.222 219.052C177.158 217.166 175.161 216 172.996 216H90ZM219.5 272C216.186 272 213.5 269.314 213.5 266V241.5C213.5 238.186 216.186 235.5 219.5 235.5H265.5C268.814 235.5 271.5 238.186 271.5 241.5V266C271.5 269.314 268.814 272 265.5 272H219.5ZM157 272C160.314 272 163 269.314 163 266V241.5C163 238.186 160.314 235.5 157 235.5H110.5C107.186 235.5 104.5 238.186 104.5 241.5V266C104.5 269.314 107.186 272 110.5 272H157Z" fill="#F5C518" stroke="#F5C518" stroke-width="5"/>
</svg>
