<svg width="302" height="302" viewBox="0 0 302 302" fill="none" xmlns="http://www.w3.org/2000/svg">
<path d="M108.401 183.292L131.631 160.062M108.401 183.292L131.631 160.062M108.401 183.292C107.205 184.488 105.875 185.258 104.902 185.744M108.401 183.292L104.902 185.744M131.631 160.062L131.672 160.103L108.635 183.311C108.63 183.316 108.626 183.321 108.621 183.326C107.534 184.416 106.571 185.74 105.884 187.313L105.861 187.367L105.838 187.421C105.167 189.017 104.855 190.682 104.855 192.332C104.855 195.88 106.288 199.006 108.635 201.352L114.645 195.342L108.635 201.352C110.982 203.699 114.107 205.132 117.656 205.132C119.697 205.132 121.564 204.611 123.177 203.805C124.146 203.32 125.468 202.555 126.66 201.369C126.665 201.363 126.671 201.358 126.676 201.353L149.884 178.315L149.948 178.379L127.269 201.226C125.648 202.581 124.61 204.267 124 205.9C123.449 207.361 123.131 208.944 123.131 210.607C123.131 214.156 124.564 217.281 126.91 219.628L132.921 213.617L126.91 219.628C129.257 221.975 132.382 223.407 135.931 223.407C137.605 223.407 139.288 223.084 140.896 222.393C142.496 221.709 143.838 220.738 144.937 219.642C144.942 219.637 144.947 219.632 144.951 219.628L168.159 196.591L168.201 196.632L144.971 219.862C143.869 220.964 142.892 222.311 142.205 223.918C141.514 225.526 141.191 227.209 141.191 228.883C141.191 232.671 142.859 235.862 145.328 238.139C147.65 240.285 150.693 241.683 154.206 241.683C156.248 241.683 158.115 241.162 159.728 240.355L159.728 240.355C160.701 239.869 162.031 239.099 163.227 237.903M131.631 160.062L160.881 94.5148M104.902 185.744C104.902 185.744 104.901 185.744 104.901 185.744L101.1 178.142M104.902 185.744L96.3701 177.17M101.1 178.142C101.674 177.855 102.104 177.568 102.39 177.282L101.1 178.142ZM101.1 178.142C100.527 178.428 99.9535 178.572 99.3802 178.572C98.2335 178.572 97.2301 178.104 96.3701 177.17M96.3701 177.17L90.1331 182.945C90.13 182.941 90.1268 182.938 90.1237 182.935C90.121 182.932 90.1182 182.929 90.1155 182.926L96.3701 177.17ZM163.227 237.903L233.748 167.382C236.284 164.846 238.239 161.878 239.482 158.502L239.485 158.492L239.488 158.483C240.593 155.459 241.183 152.324 241.183 149.116C241.183 145.83 240.616 142.623 239.457 139.553L239.452 139.54L239.447 139.526C238.185 136.217 236.203 133.345 233.631 130.949L197.314 94.6317C194.918 92.0603 192.046 90.0776 188.736 88.8159L188.723 88.8108L188.71 88.8058C185.64 87.6471 182.433 87.0801 179.147 87.0801C175.939 87.0801 172.804 87.6697 169.78 88.7744L169.77 88.7778L169.761 88.7813C166.385 90.0236 163.417 91.9791 160.881 94.5148M163.227 237.903L157.216 231.893L163.227 237.903ZM160.881 94.5148L166.891 100.525L160.881 94.5148ZM155.959 232.818L155.926 232.753L155.959 232.818ZM155.959 232.818L155.991 232.882L155.959 232.818Z" stroke="#F5C518" stroke-width="17"/>
<path d="M180.589 118.814L164.62 102.629L152.32 90.5449L149.946 88.1711C146.637 84.8623 142.859 82.3447 138.612 80.6183C134.371 78.892 130.021 78.0288 125.561 78.0288C121.102 78.0288 116.751 78.892 112.51 80.6183C108.263 82.3447 104.413 84.8623 100.961 88.1711L70.5338 118.598C67.5127 121.619 65.139 125.034 63.4126 128.844C61.6863 132.659 60.6792 136.581 60.3915 140.609C60.1038 144.637 60.5354 148.628 61.6863 152.581C62.8372 156.54 64.6354 160.174 67.0811 163.483L79.5971 150.967C78.734 149.385 78.1585 147.693 77.8708 145.892C77.5831 144.096 77.5831 142.335 77.8708 140.609C78.1585 138.883 78.734 137.156 79.5971 135.43C80.4603 133.704 81.5393 132.193 82.8341 130.898L113.261 100.256C114.987 98.5292 116.93 97.269 119.087 96.4749C121.245 95.6865 123.403 95.2923 125.561 95.2923C127.863 95.2923 130.056 95.6865 132.139 96.4749C134.228 97.269 136.063 98.5292 137.646 100.256L168.504 131.114C168.936 131.402 169.261 131.833 169.48 132.409C169.693 132.984 169.799 133.56 169.799 134.135C169.799 135.43 169.367 136.474 168.504 137.269C167.641 138.057 166.562 138.451 165.267 138.451C164.692 138.451 164.116 138.342 163.541 138.123C162.966 137.91 162.534 137.588 162.246 137.156L133.977 108.887L121.785 121.08L133.977 133.272L150.162 149.241C152.176 151.255 154.515 152.765 157.179 153.772C159.838 154.78 162.606 155.283 165.483 155.283C171.525 155.283 176.598 153.232 180.701 149.129C184.798 145.031 186.847 139.962 186.847 133.919C186.847 131.042 186.343 128.309 185.336 125.719C184.329 123.13 182.747 120.828 180.589 118.814Z" fill="#C3C3C3"/>
</svg>
