<svg width="218" height="218" viewBox="0 0 218 218" fill="none" xmlns="http://www.w3.org/2000/svg">
<path d="M27.2498 54.5C22.254 54.5 18.1665 58.5875 18.1665 63.5833V181.667C18.1665 191.658 26.3415 199.833 36.3332 199.833H154.417C159.412 199.833 163.5 195.746 163.5 190.75C163.5 185.754 159.412 181.667 154.417 181.667H45.4165C40.4207 181.667 36.3332 177.579 36.3332 172.583V63.5833C36.3332 58.5875 32.2457 54.5 27.2498 54.5Z" fill="#C3C3C3"/>
<path fill-rule="evenodd" clip-rule="evenodd" d="M179.167 22H70.1667C60.175 22 52 30.175 52 40.1667V149.167C52 159.158 60.175 167.333 70.1667 167.333H179.167C189.158 167.333 197.333 159.158 197.333 149.167V40.1667C197.333 30.175 189.158 22 179.167 22ZM116.099 60.9862C112.143 58.0213 106.5 60.8438 106.5 65.7873V123.546C106.5 128.49 112.143 131.312 116.099 128.347L156.186 98.3C158.638 96.4833 158.638 92.85 156.186 91.0333L116.099 60.9862Z" fill="#F5C518"/>
</svg>
